<?xml version="1.0" encoding="utf-8"?>
<!-- Generator: Adobe Illustrator 21.0.0, SVG Export Plug-In . SVG Version: 6.00 Build 0)  -->
<svg version="1.1" id="Layer_1" xmlns="http://www.w3.org/2000/svg" xmlns:xlink="http://www.w3.org/1999/xlink" x="0px" y="0px"
	 width="483.6px" height="133.9px" viewBox="0 0 483.6 133.9" style="enable-background:new 0 0 483.6 133.9;" xml:space="preserve"
	>
<style type="text/css">
	.st0{fill:#FF0099;}
</style>
<path class="st0" d="M288.1,53.3c6.1-6,13.5-9.7,22-11c10.3-18,34.9-45.4,89.2-42c64.4,4.1,83.3,68.9,84.3,102.5h-19
	c0-0.2-0.8-20.7-9.8-41.5c-11.4-26.2-30.5-40.4-56.7-42c-37.1-2.3-56.7,11.9-66.6,24.6c27.5,8.5,36,40.9,36.5,59h-19
	c0-0.1-0.7-11.2-5.1-22.4c-8.3-20.9-26.1-19.7-26.1-19.7c-0.1,0-0.3,0-0.4,0c-6.5-0.2-11.7,1.9-15.9,6c-9.9,9.7-12.1,29.3-12.1,36.1
	h-19C270.4,101.5,270.6,70.6,288.1,53.3z"/>
</svg>
