<?xml version="1.0" encoding="utf-8"?>
<!-- Generator: Adobe Illustrator 21.0.0, SVG Export Plug-In . SVG Version: 6.00 Build 0)  -->
<svg version="1.1" id="Layer_1" xmlns="http://www.w3.org/2000/svg" xmlns:xlink="http://www.w3.org/1999/xlink" x="0px" y="0px"
	 width="483.6px" height="133.9px" viewBox="0 0 483.6 133.9" style="enable-background:new 0 0 483.6 133.9;" xml:space="preserve"
	>
<style type="text/css">
	.st0{fill:#FFFFFF;}
</style>
<g>
	<path class="st0" d="M22,36.9v69.8H1.9V36.9H22z"/>
	<path class="st0" d="M61,133.9c-21.8,0-33.7-10.4-33.7-22.5c0-7.5,4.1-16.7,13.1-22c-1-1.5-1.5-2.9-1.5-4.6c0-2,0.8-3.4,1.9-6
		c-5.9-3.8-11.2-10-11.2-17.7C29.3,43.9,41.8,34.4,61,34.4c2.6,0,4.3,0,7.2,0.5l7-7l16.5,9.5l-5.9,6.9c3.7,4.5,5.4,10.5,5.4,14.3
		c0,17.9-15.8,25-31.4,25c-1.2,0-1.1,0.1-1.9,0c-0.1,0.5-0.3,1-0.3,1.3c14.3-0.3,36.6,5.3,37.2,24.7C95.3,127.2,77.6,133.9,61,133.9
		z M61.1,117.2c7.3,0,12.9-2.6,12.9-7c0-5.1-4.4-8.7-13.5-8.7c-6.5,0-12.8,2.5-12.8,9C47.7,114.1,53.4,117.2,61.1,117.2z M60,66
		c7.8,0,11-3.5,11-7.5c0-4.1-4.5-7.8-10.5-7.8c-6.3,0-11.3,3.6-11.3,7.8C49.3,62.5,52.7,66,60,66z"/>
	<path class="st0" d="M119.1,11.3v95.4H99.5V11.3H119.1z"/>
	<path class="st0" d="M190,59.4v26.5c-0.1,18.1-20.2,22.8-31.1,22.8c-12.8,0-31.5-8.8-31.5-22.8V59.4c0-16.4,16.8-24.8,31.5-24.8
		C169.2,34.5,190.1,37.9,190,59.4z M147.6,59.4v24.1c0,5.3,7.6,7.8,11.3,7.8c4.3,0,11.7-2.3,11.7-7.8V59.4c0-5-6.6-7.2-11.7-7.2
		C154.6,52.2,147.6,54.4,147.6,59.4z"/>
	<path class="st0" d="M259.9,59.4v26.5c-0.1,18.1-20.2,22.8-31.1,22.8c-12.8,0-31.5-8.8-31.5-22.8V59.4c0-16.4,16.8-24.8,31.5-24.8
		C239.1,34.5,260.1,37.9,259.9,59.4z M217.5,59.4v24.1c0,5.3,7.6,7.8,11.3,7.8c4.3,0,11.7-2.3,11.7-7.8V59.4c0-5-6.6-7.2-11.7-7.2
		C224.6,52.2,217.5,54.4,217.5,59.4z"/>
</g>
<path class="st0" d="M288.1,53.3c6.1-6,13.5-9.7,22-11c10.3-18,34.9-45.4,89.2-42c64.4,4.1,83.3,68.9,84.3,102.5h-19
	c0-0.2-0.8-20.7-9.8-41.5c-11.4-26.2-30.5-40.4-56.7-42c-37.1-2.3-56.7,11.9-66.6,24.6c27.5,8.5,36,40.9,36.5,59h-19
	c0-0.1-0.7-11.2-5.1-22.4c-8.3-20.9-26.1-19.7-26.1-19.7c-0.1,0-0.3,0-0.4,0c-6.5-0.2-11.7,1.9-15.9,6c-9.9,9.7-12.1,29.3-12.1,36.1
	h-19C270.4,101.5,270.6,70.6,288.1,53.3z"/>
<path class="st0" d="M12,6.7c6.7,0,12,5.3,12,12c0,6.7-5.3,12-12,12s-12-5.3-12-12C0,12,5.3,6.7,12,6.7z"/>
</svg>
